TITLE ""
FILE "Disc6Track59.mp3" MP3
  TRACK 01 AUDIO
    TITLE "Disc6Track59_01"
    INDEX 01 00:00:00
  TRACK 02 AUDIO
    TITLE "Disc6Track59_02"
    INDEX 01 00:01:06
  TRACK 03 AUDIO
    TITLE "Disc6Track59_03"
    INDEX 01 00:02:52
  TRACK 04 AUDIO
    TITLE "Disc6Track59_04"
    INDEX 01 00:03:71
  TRACK 05 AUDIO
    TITLE "Disc6Track59_05"
    INDEX 01 00:09:09
  TRACK 06 AUDIO
    TITLE "Disc6Track59_06"
    INDEX 01 00:09:39
  TRACK 07 AUDIO
    TITLE "Disc6Track59_07"
    INDEX 01 00:10:66
  TRACK 08 AUDIO
    TITLE "Disc6Track59_08"
    INDEX 01 00:12:10
  TRACK 09 AUDIO
    TITLE "Disc6Track59_09"
    INDEX 01 00:13:36
  TRACK 10 AUDIO
    TITLE "Disc6Track59_10"
    INDEX 01 00:13:72
  TRACK 11 AUDIO
    TITLE "Disc6Track59_11"
    INDEX 01 00:15:18
  TRACK 12 AUDIO
    TITLE "Disc6Track59_12"
    INDEX 01 00:17:19
  TRACK 13 AUDIO
    TITLE "Disc6Track59_13"
    INDEX 01 00:18:38
  TRACK 14 AUDIO
    TITLE "Disc6Track59_14"
    INDEX 01 00:21:10
  TRACK 15 AUDIO
    TITLE "Disc6Track59_15"
    INDEX 01 00:21:40
  TRACK 16 AUDIO
    TITLE "Disc6Track59_16"
    INDEX 01 00:22:71
  TRACK 17 AUDIO
    TITLE "Disc6Track59_17"
    INDEX 01 00:26:12
  TRACK 18 AUDIO
    TITLE "Disc6Track59_18"
    INDEX 01 00:27:44
  TRACK 19 AUDIO
    TITLE "Disc6Track59_19"
    INDEX 01 00:28:07
  TRACK 20 AUDIO
    TITLE "Disc6Track59_20"
    INDEX 01 00:29:28
  TRACK 21 AUDIO
    TITLE "Disc6Track59_21"
    INDEX 01 00:31:60
  TRACK 22 AUDIO
    TITLE "Disc6Track59_22"
    INDEX 01 00:33:04
  TRACK 23 AUDIO
    TITLE "Disc6Track59_23"
    INDEX 01 00:37:04
  TRACK 24 AUDIO
    TITLE "Disc6Track59_24"
    INDEX 01 00:37:33
  TRACK 25 AUDIO
    TITLE "Disc6Track59_25"
    INDEX 01 00:38:60
  TRACK 26 AUDIO
    TITLE "Disc6Track59_26"
    INDEX 01 00:40:57
  TRACK 27 AUDIO
    TITLE "Disc6Track59_27"
    INDEX 01 00:42:09
  TRACK 28 AUDIO
    TITLE "Disc6Track59_28"
    INDEX 01 00:47:49
  TRACK 29 AUDIO
    TITLE "Disc6Track59_29"
    INDEX 01 00:48:05
  TRACK 30 AUDIO
    TITLE "Disc6Track59_30"
    INDEX 01 00:49:22
  TRACK 31 AUDIO
    TITLE "Disc6Track59_31"
    INDEX 01 00:51:72
  TRACK 32 AUDIO
    TITLE "Disc6Track59_32"
    INDEX 01 00:53:12
  TRACK 33 AUDIO
    TITLE "Disc6Track59_33"
    INDEX 01 00:58:29
  TRACK 34 AUDIO
    TITLE "Disc6Track59_34"
    INDEX 01 00:58:59
  TRACK 35 AUDIO
    TITLE "Disc6Track59_35"
    INDEX 01 01:00:20
  TRACK 36 AUDIO
    TITLE "Disc6Track59_36"
    INDEX 01 01:03:60
  TRACK 37 AUDIO
    TITLE "Disc6Track59_37"
    INDEX 01 01:05:18
  TRACK 38 AUDIO
    TITLE "Disc6Track59_38"
    INDEX 01 01:07:22
  TRACK 39 AUDIO
    TITLE "Disc6Track59_39"
    INDEX 01 01:07:48
  TRACK 40 AUDIO
    TITLE "Disc6Track59_40"
    INDEX 01 01:08:75
  TRACK 41 AUDIO
    TITLE "Disc6Track59_41"
    INDEX 01 01:10:11
  TRACK 42 AUDIO
    TITLE "Disc6Track59_42"
    INDEX 01 01:11:40
  TRACK 43 AUDIO
    TITLE "Disc6Track59_43"
    INDEX 01 01:15:67
  TRACK 44 AUDIO
    TITLE "Disc6Track59_44"
    INDEX 01 01:16:23
  TRACK 45 AUDIO
    TITLE "Disc6Track59_45"
    INDEX 01 01:17:42
  TRACK 46 AUDIO
    TITLE "Disc6Track59_46"
    INDEX 01 01:21:32
  TRACK 47 AUDIO
    TITLE "Disc6Track59_47"
    INDEX 01 01:22:51
  TRACK 48 AUDIO
    TITLE "Disc6Track59_48"
    INDEX 01 01:27:31
